PathFileType	4	(X/Y/Z)	/Users/itak/Documents/Research/Walk-IL/dataset/trc/00320_00011.trc
DataRate	CameraRate	NumFrames	NumMarkers	Units	OrigDataRate	OrigDataStartFrame	OrigNumFrames
100.000000	100.000000	4	54	mm	100.000000	404	539
Frame#	Time	RPSI			LPSI			L3			STRN			T10			C7			CLAV			RBAK			LBAK			LSHO			LUPA			LAEL			LAOL			LWTS			LWPS			LFRA			LIFD			LHPS			RSHO			RUPA			RAEL			RAOL			RWTS			RWPS			RFRA			RIFD			RHTS			RHPS			RBHD			LFHD			RFHD			LBHD			LHIP			RHIP			RASI			LASI			LKNE			LTHI			LANK			LTIP			LTOE			LMT1			LMT5			LHEE			RKNE			RTHI			RANK			RTIP			RTOE			RMT1			RMT5			RHEE			LHTS			*53			
		X1	Y1	Z1	X2	Y2	Z2	X3	Y3	Z3	X4	Y4	Z4	X5	Y5	Z5	X6	Y6	Z6	X7	Y7	Z7	X8	Y8	Z8	X9	Y9	Z9	X10	Y10	Z10	X11	Y11	Z11	X12	Y12	Z12	X13	Y13	Z13	X14	Y14	Z14	X15	Y15	Z15	X16	Y16	Z16	X17	Y17	Z17	X18	Y18	Z18	X19	Y19	Z19	X20	Y20	Z20	X21	Y21	Z21	X22	Y22	Z22	X23	Y23	Z23	X24	Y24	Z24	X25	Y25	Z25	X26	Y26	Z26	X27	Y27	Z27	X28	Y28	Z28	X29	Y29	Z29	X30	Y30	Z30	X31	Y31	Z31	X32	Y32	Z32	X33	Y33	Z33	X34	Y34	Z34	X35	Y35	Z35	X36	Y36	Z36	X37	Y37	Z37	X38	Y38	Z38	X39	Y39	Z39	X40	Y40	Z40	X41	Y41	Z41	X42	Y42	Z42	X43	Y43	Z43	X44	Y44	Z44	X45	Y45	Z45	X46	Y46	Z46	X47	Y47	Z47	X48	Y48	Z48	X49	Y49	Z49	X50	Y50	Z50	X51	Y51	Z51	X52	Y52	Z52	X53	Y53	Z53	X54	Y54	Z54	

405	4.04	473.0899963378906	947.155517578125	96.47055816650391	468.4997253417969	956.5328979492188	-33.66010665893555	460.1746520996094	1020.004821777344	28.40768051147461	692.4683837890625	1200.573852539062	23.86638832092285	447.6676940917969	1138.005493164062	7.274349212646484	491.9554443359375	1385.552978515625	-11.18955707550049	645.7913818359375	1322.46240234375	12.95936679840088	437.5126647949219	1250.056030273438	53.467041015625	492.7472534179688	1344.842163085938	-114.0386047363281	584.0510864257812	1361.647338867188	-155.7562866210938	597.4780883789062	1246.853393554688	-228.9976348876953	698.8529052734375	1068.915161132812	-251.6050567626953	642.8223266601562	1024.452758789062	-204.9528198242188	915.302734375	936.8121337890625	-199.1256866455078	895.0192260742188	901.0958862304688	-254.8452606201172	769.4325561523438	990.9550170898438	-258.029296875	1030.283813476562	825.0938110351562	-194.5374298095703	940.3076782226562	847.8981323242188	-246.9261932373047	535.1492309570312	1373.390747070312	157.7306365966797	508.0644836425781	1313.35986328125	218.8898773193359	454.5890808105469	1052.466552734375	253.6864776611328	443.2588500976562	1046.235107421875	160.3981018066406	509.7703247070312	801.8670043945312	256.858642578125	454.5694580078125	807.1014404296875	309.6064453125	459.3059387207031	985.0018920898438	274.0693664550781	468.5048522949219	635.1588134765625	284.0431823730469	496.3589477539062	695.259033203125	277.9536437988281	443.3162536621094	723.5745849609375	315.8863830566406	525.6271362304688	1577.202514648438	74.91577911376953	696.2044677734375	1608.14892578125	-40.77238082885742	684.2670288085938	1609.24755859375	59.60504150390625	515.8507080078125	1567.541137695312	-69.21012115478516	556.8635864257812	907.2210693359375	-141.3752288818359	562.47802734375	898.89892578125	200.3233642578125	661.0970458984375	939.3955688476562	154.28125	677.7422485351562	934.8526000976562	-84.54060363769531	590.2250366210938	449.3453674316406	-96.37603759765625	598.5275268554688	589.7645874023438	-117.6433792114258	419.0840454101562	52.00345611572266	-56.31228256225586	509.2168273925781	236.9771881103516	-89.20869445800781	626.9798583984375	35.45733642578125	-10.71589279174805	557.9190673828125	25.4273738861084	34.02133560180664	541.2755126953125	38.23876571655273	-77.97943115234375	388.8178405761719	53.08607482910156	12.55621528625488	754.1827392578125	464.9857788085938	179.0698547363281	687.1156005859375	714.7913208007812	209.1890869140625	804.7875366210938	46.52876663208008	162.3069915771484	792.5524291992188	354.1716003417969	174.6242065429688	993.6148071289062	85.51966857910156	123.4116668701172	945.21044921875	65.10464477539062	78.0692138671875	904.1280517578125	50.25649261474609	187.8440856933594	755.8331909179688	40.62903213500977	112.9555130004883	977.0542602539062	888.3883056640625	-213.9387817382812	nan	nan	nan	
406	4.05	481.8308410644531	946.2005615234375	98.07212066650391	476.6499938964844	955.840087890625	-31.9117603302002	468.9258422851562	1018.755249023438	29.8877124786377	700.4759521484375	1199.65576171875	24.69509124755859	455.1638488769531	1136.816528320312	8.568751335144043	499.6145629882812	1384.371337890625	-10.03000831604004	653.6106567382812	1321.48046875	13.8025951385498	445.6872863769531	1248.818603515625	54.86152267456055	500.1817016601562	1343.515502929688	-112.8850631713867	591.349853515625	1360.409423828125	-154.7866058349609	604.8356323242188	1245.765502929688	-228.0969085693359	707.2545776367188	1068.422119140625	-250.9992523193359	651.4688720703125	1023.492309570312	-204.5269165039062	925.1395263671875	939.4740600585938	-197.8146820068359	905.6576538085938	903.4262084960938	-253.601318359375	778.6334228515625	991.3875732421875	-257.193359375	1041.933837890625	829.7424926757812	-192.6272583007812	951.7584228515625	850.9400634765625	-245.4342651367188	543.2177124023438	1372.478271484375	158.8010406494141	515.8897094726562	1312.665893554688	219.9365081787109	460.3548889160156	1052.077392578125	253.8093872070312	450.1900634765625	1045.947998046875	160.4580078125	512.3508911132812	800.6498413085938	257.6822509765625	456.7156066894531	806.9966430664062	310.0111083984375	464.1814880371094	984.7437744140625	274.3756713867188	468.3687744140625	634.9234008789062	284.9985656738281	496.7826538085938	694.1970825195312	278.24755859375	444.138671875	723.6113891601562	316.2749328613281	533.3248901367188	1576.052490234375	75.80356597900391	703.6951293945312	1607.168212890625	-40.12400436401367	691.872314453125	1608.281372070312	60.27722549438477	523.34619140625	1566.368896484375	-68.32189178466797	564.3142700195312	906.66259765625	-140.2093048095703	571.8173217773438	897.4451904296875	201.4244232177734	670.18798828125	938.1930541992188	154.7232971191406	685.4913330078125	933.8380126953125	-84.00271606445312	594.3837280273438	448.9147033691406	-96.55094909667969	603.650390625	589.2716064453125	-117.5230255126953	419.3438110351562	52.79783630371094	-56.22844696044922	511.2215881347656	237.2804870605469	-89.22512817382812	627.100341796875	35.47027206420898	-10.83617687225342	558.1011962890625	25.53068161010742	33.96496963500977	541.416748046875	38.37490463256836	-78.04204559326172	389.1419677734375	54.46010589599609	12.69114875793457	759.521484375	461.9847106933594	179.1351013183594	694.3452758789062	712.3218383789062	209.9822692871094	824.0505981445312	45.44322967529297	162.4713439941406	801.3285522460938	352.9241333007812	174.6529541015625	1011.627868652344	89.79197692871094	121.970832824707	963.2849731445312	68.17485809326172	77.03964233398438	923.7236938476562	52.22397994995117	187.23388671875	774.7317504882812	38.40297317504883	113.649284362793	987.6528930664062	892.0347290039062	-212.3001098632812	nan	nan	nan	
407	4.06	490.577392578125	945.1661376953125	99.77395629882812	484.8466491699219	955.0845336914062	-30.06732559204102	477.7384643554688	1017.451110839844	31.48242378234863	708.493896484375	1198.709838867188	25.57196235656738	462.7727661132812	1135.563842773438	10.05765819549561	507.2508850097656	1383.145874023438	-8.744963645935059	661.4367065429688	1320.484985351562	14.71589660644531	453.9687805175781	1247.498901367188	56.43456268310547	507.5725402832031	1342.137329101562	-111.5929946899414	598.5733642578125	1359.115844726562	-153.7254486083984	612.0346069335938	1244.582153320312	-227.0932159423828	715.344970703125	1067.746826171875	-250.3251647949219	659.7449340820312	1022.39697265625	-204.0377960205078	934.3754272460938	941.5834350585938	-196.3426971435547	915.6954956054688	905.3057861328125	-252.2354125976562	787.4249877929688	991.5504150390625	-256.2735290527344	1052.73046875	833.6151123046875	-190.5467071533203	962.51708984375	853.46630859375	-243.8264770507812	551.3186645507812	1371.536499023438	159.9780578613281	523.7855224609375	1311.912353515625	221.0964965820312	466.3004150390625	1051.617797851562	254.0421295166016	457.3136901855469	1045.575927734375	160.6508331298828	515.4486694335938	799.53857421875	258.5988464355469	459.2931213378906	806.8355102539062	310.4170837402344	469.2971496582031	984.415771484375	274.7593688964844	468.8933715820312	634.6763916015625	285.9104309082031	497.8757934570312	693.2860717773438	278.7192993164062	445.5069274902344	723.5914916992188	316.6351013183594	540.9719848632812	1574.908447265625	76.72805023193359	711.150146484375	1606.163330078125	-39.46490859985352	699.4481811523438	1607.303466796875	60.96967315673828	530.80029296875	1565.163696289062	-67.38292694091797	571.7675170898438	906.0714721679688	-138.9696350097656	581.1525268554688	895.943359375	202.6064453125	679.2832641601562	936.8784790039062	155.2502746582031	693.316650390625	932.8054809570312	-83.42793273925781	598.78955078125	448.4801635742188	-96.73458862304688	608.9220581054688	588.7567138671875	-117.3632202148438	419.6553039550781	53.71324920654297	-56.23107528686523	513.3883056640625	237.6264801025391	-89.26404571533203	627.2097778320312	35.49340438842773	-10.95211410522461	558.2864990234375	25.64057540893555	33.88937377929688	541.5662841796875	38.50834274291992	-78.13056182861328	389.4975280761719	55.96884155273438	12.74215602874756	765.2817993164062	459.2236938476562	179.3209381103516	701.9493408203125	710.0270385742188	210.8188323974609	840.6087036132812	44.63069534301758	162.3710784912109	809.6734619140625	351.6626892089844	174.6915283203125	1027.145141601562	92.96885681152344	120.4226531982422	978.7550659179688	70.54006195068359	75.85726928710938	940.5264892578125	53.64949035644531	186.3892974853516	790.9961547851562	36.77726745605469	113.9902114868164	997.5878295898438	895.0532836914062	-210.4757537841797	nan	nan	nan	
408	4.07	499.3298034667969	944.0737915039062	101.5641021728516	493.0894775390625	954.2783813476562	-28.14201354980469	486.5729370117188	1016.109497070312	33.18236541748047	716.5164184570312	1197.746704101562	26.49466323852539	470.5489196777344	1134.265380859375	11.746506690979	514.869384765625	1381.892456054688	-7.335315704345703	669.2713623046875	1319.488647460938	15.7011661529541	462.3486633300781	1246.1142578125	58.17341232299805	514.921142578125	1340.730712890625	-110.1690139770508	605.723388671875	1357.788452148438	-152.5713653564453	619.0896606445312	1243.3203125	-225.9776611328125	723.1210327148438	1066.901245117188	-249.5740356445312	667.6541748046875	1021.173278808594	-203.4623565673828	943.0262451171875	943.1406860351562	-194.7395172119141	925.1222534179688	906.7147216796875	-250.7601013183594	795.8018798828125	991.4386596679688	-255.2663421630859	1062.701538085938	836.6922607421875	-188.3294067382812	972.5748901367188	855.4478149414062	-242.1102905273438	559.4500732421875	1370.568481445312	161.2619781494141	531.7686157226562	1311.110961914062	222.3802337646484	472.4476013183594	1051.090698242188	254.4031219482422	464.5774230957031	1045.135620117188	160.9765930175781	519.1135864257812	798.5548706054688	259.6542663574219	462.3487854003906	806.6062622070312	310.8408813476562	474.6737976074219	984.0120849609375	275.2308654785156	470.1047058105469	634.38671875	286.7623596191406	499.6798706054688	692.5013427734375	279.3609619140625	447.4736328125	723.5089111328125	316.985595703125	548.5733642578125	1573.789794921875	77.69361877441406	718.5650024414062	1605.155151367188	-38.79665374755859	706.9966430664062	1606.334838867188	61.67992401123047	538.2123413085938	1563.9384765625	-66.38813781738281	579.2423095703125	905.4549560546875	-137.6620025634766	590.451416015625	894.4315795898438	203.8606567382812	688.365966796875	935.4705200195312	155.8790130615234	701.2174072265625	931.7406616210938	-82.79319763183594	603.482421875	448.0317993164062	-96.8885498046875	614.3855590820312	588.2069702148438	-117.1339263916016	420.0252685546875	54.76763916015625	-56.32265472412109	515.7461547851562	238.0156707763672	-89.31542205810547	627.3031005859375	35.52190399169922	-11.05463695526123	558.4666748046875	25.75211143493652	33.79543685913086	541.7285766601562	38.63967895507812	-78.24296569824219	389.8806457519531	57.62052154541016	12.6915979385376	771.55078125	456.7418823242188	179.5735626220703	709.963134765625	707.9691162109375	211.6676177978516	854.3765258789062	43.90998458862305	162.0802612304688	817.6410522460938	350.3382873535156	174.7178802490234	1040.16162109375	94.79935455322266	118.8322601318359	991.60400390625	71.94724273681641	74.59568786621094	954.4901733398438	54.31577682495117	185.3693389892578	804.5376586914062	35.5754280090332	114.0164184570312	1006.868774414062	897.425537109375	-208.4940185546875	nan	nan	nan	
